<svg xmlns="http://www.w3.org/2000/svg" xmlns:xlink="http://www.w3.org/1999/xlink" fill="none" version="1.1" width="551.239990234375" height="366.3373718261719" viewBox="0 0 551.239990234375 366.3373718261719"><defs><clipPath id="master_svg0_3_7209"><rect x="0" y="0" width="551.239990234375" height="366.3373718261719" rx="0"/></clipPath></defs><g clip-path="url(#master_svg0_3_7209)"><g><path d="M197.7300103515625,210.830453125C216.6211103515625,177.598953125,252.6562103515625,152.082623125,290.80211035156253,154.540733125C262.6646103515625,185.139253125,246.2569103515625,224.704353125,244.4823103515625,266.235953125C243.8559103515625,282.254953125,244.82731035156252,300.13795312499997,234.1909103515625,312.132953125C227.5728103515625,319.596953125,217.4569103515625,323.21195312500004,207.5107103515625,323.96995312499996C197.5641103515625,324.727953125,187.6198103515625,322.930953125,177.8061003515625,321.140953125L175.4255153515625,321.871953125C174.5191813515625,283.656953125,178.8389003515625,244.061953125,197.7300103515625,210.830453125Z" fill="#F0F0F0" fill-opacity="1"/></g><g><path d="M290.85928808593746,155.3406828125C262.6505880859375,168.9203328125,238.5975880859375,191.59983281249998,223.8321880859375,219.2592328125C220.6398880859375,225.2391328125,217.9220880859375,231.5830328125,216.7364880859375,238.2906328125C215.5503880859375,245.0012328125,216.3788880859375,251.3891328125,218.6708880859375,257.7631328125C220.7662880859375,263.5891328125,223.5844880859375,269.3071328125,224.2269880859375,275.5421328125C224.9041880859375,282.1131328125,222.4861880859375,288.2581328125,218.1336880859375,293.1351328125C212.8082880859375,299.1011328125,205.6564880859375,302.79913281250003,198.5369880859375,306.17213281249997C190.6320880859375,309.9161328125,182.3621080859375,313.6811328125,176.7632280859375,320.6701328125C176.0848310859375,321.5171328125,174.8105270859375,320.4141328125,175.4878770859375,319.5691328125C185.2289680859375,307.4091328125,201.9032880859375,305.1231328125,213.4659880859375,295.32813281250003C218.8613880859375,290.7571328125,222.9120880859375,284.5331328125,222.6563880859375,277.2401328125C222.4328880859375,270.8621328125,219.5317880859375,264.9641328125,217.3591880859375,259.0821328125C215.0778880859375,252.9069328125,213.9402880859375,246.69753281250001,214.7583880859375,240.11343281249998C215.5951880859375,233.37823281250002,218.0707880859375,226.9147328125,221.0961880859375,220.8794328125C227.91908808593752,207.2684328125,237.2564880859375,194.7724328125,247.9529880859375,183.9704328125C260.2463880859375,171.5539328125,274.5731880859375,161.3318028125,290.31328808593753,153.7464271125C291.2882880859375,153.2773348125,291.8272880859375,154.8746528125,290.85928808593746,155.3406828125Z" fill="#FFFFFF" fill-opacity="1"/></g><g><path d="M228.15722890625,210.015596484375C219.22564490625,203.484796484375,216.34043890625,191.444996484375,221.34183890625,181.575343484375C221.83513890625,180.610119484375,223.35823890625,181.331327484375,222.86427890625,182.297846484375C218.18831890625,191.483296484375,220.90197890625,202.705896484375,229.25807890625,208.740196484375C230.13617890625,209.375896484375,229.03037890625,210.64759648437501,228.15722890625,210.015596484375Z" fill="#FFFFFF" fill-opacity="1"/></g><g><path d="M217.2193261640625,254.948391015625C228.0554431640625,253.365091015625,237.8966431640625,247.755641015625,244.7806431640625,239.238663015625C245.4620431640625,238.394279015625,246.7365431640625,239.496155015625,246.0560431640625,240.339511015625C238.8758431640625,249.189191015625,228.6226431640625,255.005791015625,217.3427131640625,256.628691015625C216.2674711640625,256.78259101562503,216.1499191640625,255.10149101562502,217.2193261640625,254.948391015625Z" fill="#FFFFFF" fill-opacity="1"/></g><g><path d="M261.07867734375,173.627059265625C263.95972734375,176.820582265625,268.25347734375,178.351372265625,272.50497734375,177.700742265625C273.57777734375,177.533262265625,273.69417734375,179.214572265625,272.62837734375,179.380972265625C267.92980734375,180.077682265625,263.19141734375,178.400202265625,259.97779034375,174.902402265625C259.63990264375,174.591362265625,259.60170324375,174.071357265625,259.89053334375,173.714299265625C260.19566834375,173.364385665625,260.72568734375,173.325461265625,261.07867734375,173.627059265625Z" fill="#FFFFFF" fill-opacity="1"/></g><g><path d="M366.702041015625,259.3738C366.035041015625,259.4975,365.368041015625,259.6211,364.695041015625,259.7576C355.73804101562496,261.4663,346.934041015625,263.8997,338.371041015625,267.0341C337.705041015625,267.2659,337.034041015625,267.5109,336.376041015625,267.7614C315.827041015625,275.5326,296.898041015625,287.0516,280.554041015625,301.7326C274.05504101562497,307.58050000000003,268.010741015625,313.9144,262.473141015625,320.6794C254.82604101562498,330.0224,247.278041015625,340.7615,237.28514101562502,346.8535C236.249741015625,347.5005,235.175241015625,348.0825,234.06774101562502,348.59749999999997L176.501551015625,324.7196C176.397951015625,324.5997,176.288291015625,324.4926,176.184071015625,324.37239999999997L173.842041015625,323.5241C174.103265015625,323.1553,174.382138015625,322.7783,174.643362015625,322.4095C174.794037015625,322.1949,174.957441015625,321.9856,175.108121015625,321.771C175.212621015625,321.6296,175.317771015625,321.4885,175.403991015625,321.3549C175.438601015625,321.3078,175.473841015625,321.2608,175.503021015625,321.2267C175.589241015625,321.0932,175.683501015625,320.9783,175.764251015625,320.8579Q178.093691015625,317.69100000000003,180.475741015625,314.5458C180.481181015625,314.5326,180.481181015625,314.5326,180.499491015625,314.5248C192.640341015625,298.5792,206.219041015625,283.507,221.653741015625,270.975C222.11824101562502,270.5981,222.587541015625,270.2078,223.078341015625,269.8418C230.066941015625,264.2316,237.502441015625,259.2019,245.310441015625,254.803C249.593541015625,252.408,253.995241015625,250.2315,258.498541015625,248.2817C270.144041015625,243.26594,282.506041015625,240.11314,295.131041015625,238.938902C320.30004101562497,236.60177,345.93504101562496,242.33999,365.239041015625,258.1514C365.732041015625,258.5562,366.214041015625,258.9559,366.702041015625,259.3738Z" fill="#F0F0F0" fill-opacity="1"/></g><g><path d="M366.269578125,260.050845703125C335.570578125,253.909905703125,302.710578125,257.536615703125,274.268478125,270.731295703125C268.119378125,273.583895703125,262.129878125,277.012895703125,257.144778125,281.654695703125C252.157478125,286.298595703125,248.973078125,291.897795703125,246.96577812499999,298.366795703125C245.130678125,304.280695703125,243.93847812500002,310.542495703125,240.697778125,315.907395703125C237.281878125,321.562195703125,231.651778125,325.012595703125,225.240478125,326.285895703125C217.395978125,327.843695703125,209.459578125,326.490095703125,201.744478125,324.896595703125C193.178278125,323.127295703125,184.308708125,321.153795703125,175.630404125,323.363295703125C174.578912425,323.630995703125,174.225002125,321.983795703125,175.274902125,321.716495703125C190.373678125,317.872395703125,205.06337812499999,326.086395703125,220.192978125,325.226895703125C227.252778125,324.825895703125,234.234478125,322.294895703125,238.421378125,316.317795703125C242.082678125,311.09099570312503,243.317578125,304.634895703125,245.123878125,298.630795703125C247.020478125,292.326495703125,249.850578125,286.683695703125,254.467878125,281.919195703125C259.19117812499996,277.045395703125,265.059278125,273.375095703125,271.10847812500003,270.377695703125C284.750578125,263.617965703125,299.729578125,259.262455703125,314.773578125,257.077695703125C332.065578125,254.565272703125,349.65857812499996,255.029218703125,366.793578125,258.449515703125C367.853578125,258.661665703125,367.322578125,260.261655703125,366.269578125,260.050845703125Z" fill="#FFFFFF" fill-opacity="1"/></g><g><path d="M283.2873369375,265.9546578125C280.0879259375,255.3627578125,285.0330459375,244.0126178125,294.9686359375,239.1434364125C295.9436359375,238.6697638125,296.7255359375,240.1626178125,295.7491359375,240.6369278125C286.4854059375,245.1557078125,281.8952869375,255.7502578125,284.9341559375,265.5991578125C285.2525559375,266.6354578125,283.6039359375,266.9850578125,283.2873369375,265.9546578125Z" fill="#FFFFFF" fill-opacity="1"/></g><g><path d="M247.501425859375,295.2455149375C257.10675585937497,300.5053959375,268.341655859375,301.9516659375,278.965955859375,299.2959559375C280.018355859375,299.0319959375,280.372555859375,300.6791359375,279.321455859375,300.9427759375C268.260355859375,303.6857459375,256.571755859375,302.1568859375,246.588313859375,296.6613659375C245.637113859375,296.1369059375,246.555384859375,294.7239159375,247.501425859375,295.2455149375Z" fill="#FFFFFF" fill-opacity="1"/></g><g><path d="M331.481696640625,256.7215791875C331.859306640625,261.0059971875,334.366006640625,264.8133771875,338.152336640625,266.8536171875C339.109726640625,267.3658171875,338.190396640625,268.7782171875,337.239236640625,268.2695171875C333.068216640625,265.9968871875,330.294830640625,261.8046771875,329.834846040625,257.0770771875C329.752363640625,256.6253021875,330.034932640625,256.1871771875,330.480521640625,256.0759387875C330.934816640625,255.9802987875,331.381426640625,256.2683151875,331.481696640625,256.7215791875Z" fill="#FFFFFF" fill-opacity="1"/></g><g><path d="M257.04201525878904,298.766990234375Q248.98001525878905,259.786190234375,238.90301525878905,246.789790234375L235.05301525878906,243.804290234375L230.42301525878906,240.20799023437502L230.44501525878906,239.745690234375L229.34701525878907,239.372390234375L229.08901525878906,239.17199023437502L228.66701525878906,238.84749023437502L228.59901525878905,238.920490234375L228.45501525878908,239.06909023437498L207.50501525878906,231.947790234375L180.92601525878905,222.919590234375L168.61801525878906,206.922030234375C164.55501525878907,201.640310234375,158.25201525878907,198.566250634375,151.58901525878906,198.615573836375L112.28201525878906,198.906420234375C106.96701525878906,198.945751234375,101.85901525878906,200.971790234375,97.96241525878906,204.586250234375L72.12651525878906,228.550890234375L31.86931525878906,247.777490234375L31.801415258789064,247.70949023437498L31.37861525878906,248.011490234375L25.158515258789063,250.985590234375L25.41521525878906,252.321690234375L21.565415258789063,255.099690234375Q11.487915258789062,267.192690234375,3.4258552587890625,303.463990234375C1.3749652587890624,312.692990234375,0.3654472587890625,332.490990234375,0.0010630887890625,356.886990234375C-0.0759988412109375,362.081990234375,4.113435258789062,366.335990234375,9.309235258789062,366.336990234375L224.33101525878905,366.336990234375L251.16801525878907,366.336990234375C256.3600152587891,366.334990234375,260.5470152587891,362.087990234375,260.47701525878904,356.89699023437504C260.12101525878904,330.349990234375,259.1120152587891,308.775990234375,257.04201525878904,298.766990234375Z" fill="#3F3D56" fill-opacity="1"/></g><g><path d="M284.6303876953125,33.994873046875C267.2038876953125,33.986366606875,253.0723876953125,48.110973046875,253.0723876953125,65.537373046875C253.0723876953125,82.963873046875,267.2038876953125,97.08847304687501,284.6303876953125,97.079973046875L519.6973876953125,97.079973046875C537.1123876953125,97.071473046875,551.2243876953125,82.951873046875,551.2243876953125,65.537373046875C551.2243876953125,48.122973046875,537.1123876953125,34.003370646875,519.6973876953125,33.994873046875L284.6303876953125,33.994873046875Z" fill="#E5E5E5" fill-opacity="1"/></g><g><path d="M284.630335546875,40.37841796875C270.735435546875,40.37841796875,259.471435546875,51.642417968749996,259.471435546875,65.53741796874999C259.471435546875,79.43231796875,270.735435546875,90.69631796875001,284.630335546875,90.69631796875001L519.697435546875,90.69631796875001C533.592435546875,90.69631796875001,544.856435546875,79.43231796875,544.856435546875,65.53741796874999C544.856435546875,51.642417968749996,533.592435546875,40.37841796875,519.697435546875,40.37841796875L284.630335546875,40.37841796875Z" fill="#FFFFFF" fill-opacity="1"/></g><g><ellipse cx="138.10785675048828" cy="132.35309600830078" rx="51.49591827392578" ry="51.49591827392578" fill="#9E616A" fill-opacity="1"/></g><g><path d="M124.934284046875,181.327260625Q124.604284046875,180.600711625,124.276123046875,179.869140625C124.360444646875,179.871846415,124.443917046875,179.883978225,124.528204046875,179.886171225L124.934284046875,181.327260625Z" fill="#2F2E41" fill-opacity="1"/></g><g><path d="M85.179844140625,83.19875078125C87.784444140625,81.12105078125,90.828444140625,79.20935078125,94.158544140625,79.31685078125C97.488344140625,79.42415078125,100.865144140625,82.43165078125,100.175244140625,85.69115078125C112.80044414062499,63.33721078125,139.649244140625,53.26963078125,163.859444140625,61.81130078125C172.136244140625,64.73125078125,180.252244140625,70.57285078125,182.15324414062502,79.14075078125C182.64124414062502,81.34015078125,182.74624414062498,83.75175078125,184.119244140625,85.53775078125C185.850244140625,87.78955078125,189.163244140625,88.29885078125,191.89124414062502,87.50675078124999Q191.93224414062502,87.49485078125,191.973244140625,87.48265078125C192.916244140625,87.16065078125,193.960244140625,87.44615078125,194.608244140625,88.20305078125C195.255244140625,88.95995078125,195.376244140625,90.03545078125,194.913244140625,90.91735078125001L192.571244140625,95.28475078125C195.523244140625,95.94275078125,198.590244140625,95.87745078124999,201.512244140625,95.09465078125001C202.506244140625,94.83385078124999,203.557244140625,95.22665078125,204.136244140625,96.07585078125C204.716244140625,96.92505078125001,204.698244140625,98.04685078125,204.093244140625,98.87765078125C196.371244140625,109.47915078125,183.471244140625,116.32495078125001,170.30624414062498,116.24455078125C160.95004414062498,116.18745078124999,151.49714414062498,112.96275078125001,142.391044140625,115.11445078125C127.34754414062499,118.66905078125001,119.425744140625,135.20295078125,126.081744140625,149.15435078125C123.284344140625,146.09455078125,117.87664414062499,146.81895078125,115.01504414062501,149.81895078125C112.153644140625,152.81905078124998,111.412844140625,157.29675078125,111.70114414062499,161.43255078125C112.142044140625,167.75855078125,114.620444140625,173.71855078125,117.233244140625,179.52055078125C95.327444140625,178.83055078125,74.608184140625,163.46355078125,67.634044140625,142.68025078124998C60.630654140625,121.80955078125001,67.970434140625,96.92725078125,85.179844140625,83.19875078125Z" fill="#2F2E41" fill-opacity="1"/></g><g style="opacity:0.20000000298023224;"><path d="M50.685302734375,286.99853515625L65.128702734375,365.58263515625003L73.795102734375,366.33713515625L50.685302734375,286.99853515625Z" fill="#000000" fill-opacity="1"/></g><g style="opacity:0.20000000298023224;"><path d="M209.7826515625,281.072021484375L195.3392715625,365.525921484375L186.6728515625,366.337221484375L209.7826515625,281.072021484375Z" fill="#000000" fill-opacity="1"/></g><g><path d="M97.49899140625,56.75153896484375C94.72969140625,57.90783896484375,91.83999140625,56.64053896484375,90.62809140625001,53.73833896484375C89.39769140625,50.79173896484375,90.54689140625,47.80053896484375,93.36059140625,46.62563896484375C96.17449140625,45.45063896484375,99.01279140625,46.72103896484375,100.26299140625,49.71513896484375C101.49449140625,52.66433896484375,100.35789140625,55.55773896484375,97.49899140625,56.75153896484375ZM92.19409140625,40.82573896484375L89.99219140625,41.74513896484375C88.85179140625,42.21573896484375,87.54099140625,41.73493896484375,86.97529140625,40.63863896484375L86.86639140625,40.42563896484375C84.49709140625001,36.15273896484375,84.22579140625,30.95963896484375,86.06429140624999,24.99873896484375C87.76749140625,19.65153896484375,88.47489140625,15.89093896484375,87.05229140624999,12.48393896484375C85.40739140625,8.54483896484375,81.89509140625,7.31090896484375,77.41612140625,9.09838896484375C75.67896140625,9.82375896484375,75.12618140625,9.81221896484375,73.75911140625,11.16833896484375C73.15827140625,11.77163896484375,72.33811140625,12.10493896484375,71.48677140625,12.09173896484375C70.66376140625,12.08203896484375,69.88001140625,11.73843896484375,69.31530940625,11.13963896484375C68.19809240625,9.95464896484375,68.18876340625,8.10704896484375,69.29396440625,6.91084896484375C71.59178140624999,4.50548896484375,74.36324140625,2.60252896484375,77.43345140625,1.32207896484375C87.05689140625,-2.69634103515625,91.90139140625,3.23628896484375,94.11829140625,8.54540896484375C96.28669140625,13.73833896484375,95.06689140625,18.55653896484375,93.10709140624999,24.79653896484375C91.46469140625,29.98163896484375,91.56029140625,33.82373896484375,93.42599140625,37.64393896484375C93.99399140625,38.86183896484375,93.43419140625,40.30773896484375,92.19409140625,40.82573896484375Z" fill="#6C63FF" fill-opacity="1"/></g><g><path d="M336.5535802734375,80.580940859375L289.7839502734375,80.580940859375C289.1588222734375,80.585160859375,288.6497802734375,80.079570859375,288.6497802734375,79.454410859375C288.6497802734375,78.829247859375,289.1588222734375,78.323654169375,289.7839502734375,78.327898544275L336.5535802734375,78.327898544275C337.1727802734375,78.332089869375,337.6724802734375,78.835207859375,337.6724802734375,79.454410859375C337.6724802734375,80.073590859375,337.1727802734375,80.576730859375,336.5535802734375,80.580940859375Z" fill="#6C63FF" fill-opacity="1"/></g><g><path d="M395.88378046875,80.956429140625L349.11415046875,80.956429140625C348.48902246875,80.960669140625,347.97998046875,80.455079140625,347.97998046875,79.829919140625C347.97998046875,79.204771140625,348.48902246875,78.699160130625,349.11415046875,78.703386825525L395.88378046875,78.703386825525C396.50888046875,78.699160130625,397.01798046875,79.204754140625,397.01798046875,79.829919140625C397.01798046875,80.455079140625,396.50888046875,80.960669140625,395.88378046875,80.956429140625Z" fill="#6C63FF" fill-opacity="1"/></g><g><path d="M455.2137953125,81.331927421875L408.4441153125,81.331927421875C407.8249353125,81.327737421875,407.3251953125,80.824587421875,407.3251953125,80.205387421875C407.3251953125,79.586202421875,407.8249353125,79.083084111875,408.4441153125,79.078892791675L455.2136953125,79.078892791675C455.8388953125,79.074648411875,456.3478953125,79.580242421875,456.3478953125,80.205387421875C456.3478953125,80.830547421875,455.8388953125,81.336157421875,455.2137953125,81.331927421875Z" fill="#6C63FF" fill-opacity="1"/></g><g><path d="M514.5436513671875,81.707385703125L467.7740713671875,81.707385703125C467.1548913671875,81.703195703125,466.6551513671875,81.200075703125,466.6551513671875,80.580875703125C466.6551513671875,79.961672703125,467.1548913671875,79.458537023125,467.7740713671875,79.454345703125L514.5437513671875,79.454345703125C515.1629513671875,79.458537023125,515.6626513671876,79.961672703125,515.6626513671876,80.580875703125C515.6626513671876,81.200055703125,515.1629513671875,81.703195703125,514.5436513671875,81.707385703125Z" fill="#6C63FF" fill-opacity="1"/></g><g><ellipse cx="313.06589794158936" cy="61.521098136901855" rx="8.692484855651855" ry="8.692484855651855" fill="#6C63FF" fill-opacity="1"/></g><g><ellipse cx="372.75425243377686" cy="61.521098136901855" rx="8.692484855651855" ry="8.692484855651855" fill="#6C63FF" fill-opacity="1"/></g><g><ellipse cx="432.44260692596436" cy="61.521098136901855" rx="8.692484855651855" ry="8.692484855651855" fill="#6C63FF" fill-opacity="1"/></g><g><ellipse cx="492.13108348846436" cy="61.521098136901855" rx="8.692484855651855" ry="8.692484855651855" fill="#6C63FF" fill-opacity="1"/></g></g></svg>