<svg xmlns="http://www.w3.org/2000/svg" xmlns:xlink="http://www.w3.org/1999/xlink" fill="none" version="1.1" width="108" height="108" viewBox="0 0 108 108"><defs><clipPath id="master_svg0_3_7156"><rect x="42" y="42" width="24" height="24" rx="0"/></clipPath></defs><g><g><ellipse cx="54" cy="54" rx="54" ry="54" fill="#131118" fill-opacity="0.05000000074505806"/></g><g><ellipse cx="54" cy="54" rx="43" ry="43" fill="#131118" fill-opacity="0.10000000149011612"/></g><g><ellipse cx="54" cy="54" rx="32" ry="32" fill="#3662EC" fill-opacity="0.800000011920929"/></g><g clip-path="url(#master_svg0_3_7156)"><g><path d="M54,64C59.522800000000004,64,64,59.522800000000004,64,54C64,48.47715,59.522800000000004,44,54,44C48.47715,44,44,48.47715,44,54C44,59.522800000000004,48.47715,64,54,64ZM58.592,51.46049C58.8463,51.13353,58.7874,50.66232,58.460499999999996,50.40802C58.1335,50.15372,57.6623,50.21262,57.408,50.53958C57.408,50.53958,53.40099,55.6914,53.40099,55.6914C53.31189,55.806,53.14429,55.8209,53.036410000000004,55.7238C53.036410000000004,55.7238,50.50173,53.44256,50.50173,53.44256C50.19385,53.16547,49.71963,53.19043,49.44254,53.498310000000004C49.165440000000004,53.80619,49.1904,54.2804,49.49828,54.5575C49.49828,54.5575,52.03296,56.8387,52.03296,56.8387C52.78809,57.518299999999996,53.9613,57.4143,54.585,56.6123C54.585,56.6123,58.592,51.46049,58.592,51.46049Z" fill-rule="evenodd" fill="#FFFFFF" fill-opacity="1"/></g></g></g></svg>