<svg xmlns="http://www.w3.org/2000/svg" xmlns:xlink="http://www.w3.org/1999/xlink" fill="none" version="1.1" width="550.5999755859375" height="412.4449462890625" viewBox="0 0 550.5999755859375 412.4449462890625"><defs><clipPath id="master_svg0_3_6884"><rect x="0" y="0" width="550.5999755859375" height="412.4449462890625" rx="0"/></clipPath></defs><g clip-path="url(#master_svg0_3_6884)"><g><path d="M550.6,411.25494140625C550.6,411.91492140625,550.07,412.44494140625,549.41,412.44494140625L1.19,412.44494140625C0.53,412.44494140625,0,411.91492140625,0,411.25494140625C0,410.59497040625,0.53,410.06494140625,1.19,410.06494140625L549.41,410.06494140625C550.07,410.06494140625,550.6,410.59497040625,550.6,411.25494140625Z" fill="#2E2E43" fill-opacity="1"/></g><g><path d="M436.6587766113281,84.78432965698242L114.07563661132812,84.78432965698242C109.61710661132813,84.78432965698242,105.98977661132812,81.15702965698242,105.98977661132812,76.69852965698243L105.98977661132812,51.84578965698242C105.98977661132812,47.38725965698242,109.61710661132813,43.75992965698242,114.07563661132812,43.75992965698242L436.6587766113281,43.75992965698242C441.1177766113281,43.75992965698242,444.7447766113281,47.38725965698242,444.7447766113281,51.84578965698242L444.7447766113281,76.69852965698243C444.7447766113281,81.15702965698242,441.1177766113281,84.78432965698242,436.6587766113281,84.78432965698242Z" fill="#FFFFFF" fill-opacity="1"/><path d="M445.0287766113281,80.23292965698242Q445.7447766113281,78.54382965698242,445.7447766113281,76.69852965698243L445.7447766113281,51.84578965698242Q445.7447766113281,50.00049965698242,445.0287766113281,48.311309656982424Q444.3387766113281,46.681499656982425,443.08077661132813,45.42380965698242Q441.82277661132815,44.16618765698242,440.1927766113281,43.47560065698242Q438.50377661132814,42.75992965698242,436.6587766113281,42.75992965698242L114.07563661132812,42.75992965698242Q112.23029661132813,42.75992965698242,110.54115661132812,43.475599656982425Q108.91129661132813,44.16615565698242,107.65364661132813,45.42380965698242Q106.39600261132813,46.68144965698242,105.70544661132813,48.311309656982424Q104.98977661132812,50.000449656982425,104.98977661132812,51.84578965698242L104.98977661132812,76.69852965698243Q104.98977661132812,78.54382965698242,105.70544761132813,80.23292965698242Q106.39600461132812,81.86282965698243,107.65365661132813,83.12052965698243Q108.91130661132813,84.37812965698242,110.54116661132812,85.06872965698241Q112.23029661132813,85.78432965698242,114.07563661132812,85.78432965698242L436.6587766113281,85.78432965698242Q438.50377661132814,85.78432965698242,440.1927766113281,85.06872965698241Q441.82277661132815,84.37812965698242,443.08077661132813,83.12052965698243Q444.3387766113281,81.86282965698243,445.0287766113281,80.23292965698242ZM443.7447766113281,51.84578965698242L443.7447766113281,76.69852965698243Q443.7447766113281,79.62812965698242,441.66677661132815,81.70622965698243Q439.5887766113281,83.78432965698242,436.6587766113281,83.78432965698242L114.07563661132812,83.78432965698242Q111.14594661132813,83.78432965698242,109.06786661132813,81.70622965698243Q106.98977661132812,79.62822965698243,106.98977661132812,76.69852965698243L106.98977661132812,51.84578965698242Q106.98977661132812,48.91610965698242,109.06786661132813,46.838019656982425Q111.14594661132813,44.75992965698242,114.07563661132812,44.75992965698242L436.6587766113281,44.75992965698242Q439.5887766113281,44.75992965698242,441.66677661132815,46.838019656982425Q443.7447766113281,48.91615965698242,443.7447766113281,51.84578965698242Z" fill-rule="evenodd" fill="#BAB7C9" fill-opacity="1"/></g><g><path d="M436.6587766113281,237.9900677246094L114.07563661132812,237.9900677246094C109.61710661132813,237.9900677246094,105.98977661132812,234.36276772460937,105.98977661132812,229.90426772460938L105.98977661132812,205.05152772460937C105.98977661132812,200.59299772460938,109.61710661132813,196.96566772460938,114.07563661132812,196.96566772460938L436.6587766113281,196.96566772460938C441.1177766113281,196.96566772460938,444.7447766113281,200.59299772460938,444.7447766113281,205.05152772460937L444.7447766113281,229.90426772460938C444.7447766113281,234.36276772460937,441.1177766113281,237.9900677246094,436.6587766113281,237.9900677246094Z" fill="#FFFFFF" fill-opacity="1"/><path d="M445.0287766113281,233.4386677246094Q445.7447766113281,231.7495677246094,445.7447766113281,229.90426772460938L445.7447766113281,205.05152772460937Q445.7447766113281,203.20623772460937,445.0287766113281,201.51704772460937Q444.3387766113281,199.88723772460938,443.08077661132813,198.62954772460938Q441.82277661132815,197.37192572460938,440.1927766113281,196.68133872460936Q438.50377661132814,195.96566772460938,436.6587766113281,195.96566772460938L114.07563661132812,195.96566772460938Q112.23029661132813,195.96566772460938,110.54115661132812,196.68133772460936Q108.91129661132813,197.37189372460938,107.65364661132813,198.62954772460938Q106.39600261132813,199.88718772460936,105.70544661132813,201.51704772460937Q104.98977661132812,203.20618772460938,104.98977661132812,205.05152772460937L104.98977661132812,229.90426772460938Q104.98977661132812,231.7495677246094,105.70544761132813,233.4386677246094Q106.39600461132812,235.06856772460938,107.65365661132813,236.32626772460938Q108.91130661132813,237.58386772460938,110.54116661132812,238.27446772460937Q112.23029661132813,238.9900677246094,114.07563661132812,238.9900677246094L436.6587766113281,238.9900677246094Q438.50377661132814,238.9900677246094,440.1927766113281,238.27446772460937Q441.82277661132815,237.58386772460938,443.08077661132813,236.32626772460938Q444.3387766113281,235.06856772460938,445.0287766113281,233.4386677246094ZM443.7447766113281,205.05152772460937L443.7447766113281,229.90426772460938Q443.7447766113281,232.83386772460938,441.66677661132815,234.91196772460938Q439.5887766113281,236.9900677246094,436.6587766113281,236.9900677246094L114.07563661132812,236.9900677246094Q111.14594661132813,236.9900677246094,109.06786661132813,234.91196772460938Q106.98977661132812,232.83396772460938,106.98977661132812,229.90426772460938L106.98977661132812,205.05152772460937Q106.98977661132812,202.12184772460938,109.06786661132813,200.04375772460938Q111.14594661132813,197.96566772460938,114.07563661132812,197.96566772460938L436.6587766113281,197.96566772460938Q439.5887766113281,197.96566772460938,441.66677661132815,200.04375772460938Q443.7447766113281,202.12189772460937,443.7447766113281,205.05152772460937Z" fill-rule="evenodd" fill="#BAB7C9" fill-opacity="1"/></g><g><path d="M207.65878424072264,347.9900677246094L113.07564424072265,347.9900677246094C108.61711424072266,347.9900677246094,104.98978424072266,344.3627677246094,104.98978424072266,339.9042677246094L104.98978424072266,315.05151772460937C104.98978424072266,310.5929877246094,108.61711424072266,306.9656677246094,113.07564424072265,306.9656677246094L207.65878424072264,306.9656677246094C212.11778424072264,306.9656677246094,215.74478424072265,310.5929877246094,215.74478424072265,315.05151772460937L215.74478424072265,339.9042677246094C215.74478424072265,344.3627677246094,212.11778424072264,347.9900677246094,207.65878424072264,347.9900677246094Z" fill="#6C63FF" fill-opacity="1"/></g><g><line x1="106.69815063476562" y1="1" x2="177.44808959960938" y2="1" fill-opacity="0" stroke-opacity="1" stroke="#BAB7C9" fill="none" stroke-width="2" stroke-linecap="ROUND" stroke-linejoin="round"/></g><g><line x1="106.69815063476562" y1="154.2057342529297" x2="238.1228790283203" y2="154.2057342529297" fill-opacity="0" stroke-opacity="1" stroke="#BAB7C9" fill="none" stroke-width="2" stroke-linecap="ROUND" stroke-linejoin="round"/></g><g transform="matrix(0.8425464034080505,-0.5386237502098083,0.5386237502098083,0.8425464034080505,-140.77877323237408,267.12456058556927)"><rect x="386.5059814453125" y="374.35321044921875" width="13.204449653625488" height="18.730100631713867" rx="0" fill="#F1A1A4" fill-opacity="1"/></g><g><path d="M362.3478421875,155.10183203125L348.2937621875,159.90113203125L348.0732421875,139.60801703125L360.8626421875,139.46533203125L362.3478421875,155.10183203125Z" fill="#F1A1A4" fill-opacity="1"/></g><g><ellipse cx="349.7140941619873" cy="131.15740776062012" rx="14.054059982299805" ry="14.054059982299805" fill="#F1A1A4" fill-opacity="1"/></g><g><path d="M353.5599557128906,129.72417329101563C351.2122557128906,129.67877329101563,349.6362557128906,127.32447329101562,348.69585571289065,125.15837329101562C347.75545571289064,123.00517329101562,346.7891257128906,120.51474329101562,344.6035157128906,119.63920329101562C342.8135057128906,118.92579329101562,339.72643571289063,123.90667329101562,338.2996217128906,122.60957329101562C336.8144527128906,121.25407329101563,338.1698917128906,114.17194329101562,339.7199357128906,112.89430329101563C341.2699857128906,111.61666129101563,343.3972157128906,111.34426929101562,345.39474571289065,111.22103879101563C350.29125571289063,110.94216929101563,355.21375571289065,111.27941129101562,360.0259557128906,112.23276329101563C362.99635571289065,112.81645329101562,366.07045571289063,113.71793329101563,368.2301557128906,115.83869329101563C370.97355571289063,118.53016329101563,371.71285571289064,122.62897329101563,371.94635571289064,126.46197329101562C372.19275571289063,130.38567329101562,372.0046557128906,134.49747329101564,370.1368557128906,137.9606732910156C368.2625557128906,141.41747329101563,364.2999557128906,143.99217329101563,360.45405571289064,143.16207329101562C360.0454557128906,141.08017329101563,360.4086557128906,138.94647329101562,360.5383557128906,136.81927329101563C360.66805571289063,134.70497329101562,360.4799557128906,132.42207329101564,359.1699557128906,130.74887329101563C357.85985571289064,129.07557329101562,355.0970557128906,128.43997329101563,353.61185571289064,129.95117329101564" fill="#2F2E43" fill-opacity="1"/></g><g><path d="M370.90215869140627,134.40015897460938C372.2965386914062,133.35600297460937,373.96331869140624,132.47396897460936,375.69494869140624,132.6685485746094C377.5692786914062,132.86959797460938,379.16465869140626,134.40015897460938,379.66405869140624,136.21610897460937C380.1634586914063,138.03205897460938,379.64455869140625,140.04255897460936,378.5096386914062,141.54717897460938C377.37469869140625,143.05184897460938,375.66900869140625,144.05054897460937,373.85305869140626,144.56294897460938C372.80239869140627,144.86124897460937,371.65447869140627,144.98444897460936,370.64272869140626,144.56294897460938C369.15756269140627,143.94034897460938,368.34039269140624,142.06600897460936,368.9046326914063,140.5548989746094" fill="#2F2E43" fill-opacity="1"/></g><g><path d="M318.6031797636719,267.17107058105466C317.7211607636719,271.7952705810547,319.4787277636719,275.9978705810547,322.53988776367186,276.5491705810547C325.59454776367187,277.1003705810547,328.7918577636719,273.7927705810547,329.6804577636719,269.1686705810547C330.06305776367185,267.3267705810547,329.97875776367187,265.4200705810547,329.43395776367186,263.6105705810547L340.2452577636719,191.1287205810547L325.67886776367186,188.5604705810547L320.8860777636719,262.0799705810547C319.7122177636719,263.5846705810547,318.9274597636719,265.3292705810547,318.6031797636719,267.19057058105466L318.6031797636719,267.17107058105466Z" fill="#F1A1A4" fill-opacity="1"/></g><g><path d="M348.0343577636719,150.5879364013672L338.1115577636719,150.69818140136718C331.10720776367185,151.83314640136717,329.2458777636719,155.6012164013672,327.73476776367187,162.52773640136718C325.4194677636719,173.0926364013672,322.4620667636719,187.17253640136718,323.08468626367187,187.3671364013672C324.07696776367186,187.69143640136718,341.04945776367185,195.44803640136718,349.64275776367185,193.5283364013672L348.04085776367185,150.5879669189672L348.0343577636719,150.5879364013672Z" fill="#6C63FF" fill-opacity="1"/></g><g transform="matrix(1,-0.011169875040650368,0.011169875040650368,1,-4.256930460468993,3.8761443480755133)"><rect x="347.0177001953125" y="381.108154296875" width="13.204449653625488" height="18.730100631713867" rx="0" fill="#F1A1A4" fill-opacity="1"/></g><g><path d="M334.46020732421874,411.3241058105469C333.0658073242187,411.3435058105469,331.84010732421876,411.3241058105469,330.9061573242187,411.2462058105469C327.39101732421875,410.9674058105469,324.0250573242188,408.4121058105469,322.3193663242188,406.92040581054687C321.55407712421874,406.25240581054686,321.30114732421873,405.1629058105469,321.68377732421874,404.22890581054685C321.95617632421875,403.5609058105469,322.51391732421877,403.04860581054686,323.2143573242187,402.8345058105469L332.4562073242187,400.0847058105469L347.35330732421875,389.7922058105469L347.52200732421875,390.09054581054687C347.58680732421874,390.2007748105469,349.09150732421875,392.84039581054685,349.60380732421874,394.63037581054687C349.7984073242188,395.3113358105469,349.75950732421876,395.8755758105469,349.4741073242187,396.3165858105469C349.27950732421874,396.62139581054686,349.00710732421874,396.8030058105469,348.7866073242187,396.9132358105469C349.0590073242187,397.1921058105469,349.91510732421875,397.7628458105469,352.54820732421877,398.15194581054686C356.37460732421874,398.72268581054686,357.1464073242187,394.74056581054685,357.17230732421876,394.57195581054685L357.1983073242188,394.4357558105469L357.30850732421874,394.35793581054685C359.11800732421875,393.1581458105469,360.22700732421873,392.61984581054685,360.6161073242188,392.73007581054685C360.86260732421874,392.7949258105469,361.25820732421874,392.9181258105469,362.46450732421874,403.7100058105469C362.57470732421876,404.04720581054687,363.36600732421874,406.5247058105469,362.8731073242187,408.91140581054685C362.34130732421875,411.50560581054685,351.02410732421873,410.73380581054687,348.7671073242187,410.5587058105469C348.70230732421874,410.5652058105469,340.24520732421877,411.2656058105469,334.44720732421877,411.32400581054685L334.46670732421876,411.32400581054685L334.46020732421874,411.3241058105469Z" fill="#2F2E43" fill-opacity="1"/></g><g><path d="M383.2116426074219,408.21101577148437C381.6615926074219,408.23051577148436,380.2348026074219,408.0554157714844,379.21658260742186,407.88681577148435C378.2178036074219,407.71811577148435,377.42657460742186,406.93341577148436,377.25796510742185,405.93461577148435C377.12823490742187,405.21471577148435,377.3422856074219,404.4949157714844,377.8157046074219,403.9501157714844L384.19742260742186,396.7252157714844L391.38337260742185,380.1094057714844L391.68817260742185,380.2715457714844C391.79837260742187,380.3299257714844,394.47047260742187,381.7761857714844,395.85837260742187,383.0213957714844C396.3836726074219,383.49481577148435,396.6495726074219,383.99420577148436,396.6495726074219,384.5260357714844C396.6495726074219,384.88922577148435,396.5133726074219,385.1875657714844,396.37717260742187,385.38861577148435C396.75987260742187,385.47943577148436,397.7844726074219,385.5053357714844,400.2230726074219,384.4482157714844C403.77057260742185,382.90466577148436,402.31787260742186,379.11715577148436,402.2529726074219,378.96795577148436L402.20107260742185,378.83822577148436L402.25947260742186,378.7214957714844C403.16097260742185,376.7499357714844,403.8224726074219,375.6992797714844,404.2051726074219,375.5825195714844C404.4515726074219,375.5176696714844,404.8471726074219,375.39446977148435,411.5856726074219,383.91635577148435C411.85797260742186,384.14334577148435,413.84257260742186,385.82311577148437,414.6856726074219,388.10601577148435C415.6001726074219,390.58991577148436,405.6059726074219,395.92101577148435,403.58257260742187,396.96511577148436C403.52417260742186,397.01701577148435,393.07607260742185,404.78011577148436,388.7826726074219,407.00471577148437C387.0769626074219,407.8867157714844,385.0469926074219,408.1785157714844,383.1986426074219,408.1915157714844L383.21811260742186,408.21101577148437L383.2116426074219,408.21101577148437Z" fill="#2F2E43" fill-opacity="1"/></g><g><path d="M368.1782616210937,224.18528749648436L331.21100162109377,224.5938718964844L328.24066162109375,259.0188188964844L344.33116162109377,385.92661889648434L363.20396162109375,385.7126188964844L354.84416162109375,312.4074188964844L386.19496162109374,378.3326188964844L402.83676162109373,366.3986188964844L378.24376162109377,304.79991889648437Q386.18856162109375,250.81471889648438,379.32686162109377,237.46751889648436Q372.4717616210937,224.12039179648437,368.1848616210938,224.16577148448437L368.1848616210938,224.18522639648438L368.1782616210937,224.18528749648436Z" fill="#2F2E43" fill-opacity="1"/></g><g><path d="M386.5840411621094,226.07909169921874L327.8709411621094,226.73409169921877L344.6424411621094,150.63334669921875L370.2277411621094,150.34149169921875L386.5840411621094,226.07909169921874Z" fill="#6C63FF" fill-opacity="1"/></g><g><path d="M392.31725263671876,266.3539718017578C393.30305263671875,270.9650718017578,391.6362526367187,275.20017180175785,388.59465263671876,275.8162718017578C385.54645263671875,276.43887180175784,382.27775263671873,273.2026718017578,381.29845263671876,268.59147180175785C380.87685263671875,266.7560718017578,380.91575263671876,264.8492718017578,381.41515263671874,263.0268718017578L368.98895263671875,190.7979918017578L383.49055263671875,187.9054718017578L389.91755263671877,261.3082718017578C391.12385263671877,262.78697180175783,391.94755263671874,264.51857180175784,392.31725263671876,266.36687180175784L392.31725263671876,266.3539718017578Z" fill="#F1A1A4" fill-opacity="1"/></g><g><path d="M360.3113705234375,150.4517519580078L370.2341115234375,150.3415069580078C377.2579115234375,151.3273009580078,379.20361152343753,155.04997695800782,380.8769115234375,161.9440069580078C383.4256115234375,172.4570069580078,386.6879115234375,186.45920695800783,386.0782115234375,186.67320695800782C385.0859115234375,187.01040695800782,368.3014815234375,195.14330695800783,359.6693115234375,193.4181069580078L360.3243405234375,150.4517519580078L360.3113705234375,150.4517519580078Z" fill="#6C63FF" fill-opacity="1"/></g></g></svg>